<svg width="31" height="34" viewBox="0 0 31 34" fill="none" xmlns="http://www.w3.org/2000/svg">
<path d="M14.9119 23.9122C14.5196 23.8039 14.2146 23.4944 14.1115 23.1L13.9225 22.3775C13.7377 21.6709 14.3863 21.0292 15.0894 21.223L28.4102 24.8968C29.2196 25.12 29.3598 26.2101 28.6333 26.6316L27.7977 27.1162C27.533 27.2697 27.2178 27.3104 26.9229 27.2289L14.9119 23.9122Z" fill="white"/>
<path d="M16.1587 28.6911C15.7645 28.5833 15.458 28.2726 15.3551 27.8765L15.1643 27.1422C14.9808 26.4362 15.6287 25.7957 16.331 25.989L23.2357 27.8894C24.0462 28.1125 24.1859 29.2045 23.4578 29.6251L22.6217 30.1081C22.3581 30.2604 22.0448 30.3009 21.7513 30.2206L16.1587 28.6911Z" fill="white"/>
<path d="M18.0252 32.7735C17.4213 33.1254 16.6488 32.8032 16.4727 32.1258C16.268 31.3385 16.9901 30.6241 17.7734 30.839C18.6763 31.0868 18.8346 32.3021 18.0252 32.7735Z" fill="white"/>
<path d="M8.82194 19.9501C8.71949 19.5556 8.8345 19.1362 9.12389 18.8495L9.65396 18.3244C10.1724 17.8108 11.0515 18.0526 11.2354 18.7595L14.7199 32.1529C14.9317 32.9668 14.0594 33.6335 13.3318 33.2138L12.4951 32.7313C12.23 32.5784 12.0372 32.3253 11.9602 32.0287L8.82194 19.9501Z" fill="white"/>
<path d="M5.31486 23.4225C5.21097 23.0266 5.32637 22.6054 5.61733 22.318L6.15663 21.7853C6.67526 21.2731 7.55291 21.515 7.73691 22.221L9.54629 29.1615C9.75873 29.9763 8.8846 30.6435 8.15687 30.2221L7.32132 29.7382C7.05789 29.5857 6.86624 29.3341 6.78889 29.0393L5.31486 23.4225Z" fill="white"/>
<path d="M2.71844 27.0821C2.11226 26.734 2.00457 25.9027 2.50208 25.4112C3.08035 24.84 4.05902 25.1092 4.26485 25.8963C4.50213 26.8036 3.53065 27.5485 2.71844 27.0821Z" fill="white"/>
<path d="M9.2168 12.6864C9.50665 12.4002 9.92668 12.2903 10.3192 12.3981L11.0381 12.5954C11.7414 12.7884 11.9719 13.672 11.4528 14.185L1.61629 23.9051C1.01861 24.4957 0.00613062 24.0722 0.00508446 23.2312L0.00390719 22.264C0.00351488 21.9576 0.12598 21.6638 0.343842 21.4486L9.2168 12.6864Z" fill="white"/>
<path d="M4.46469 11.3808C4.75493 11.0927 5.17679 10.9822 5.57074 11.0909L6.30082 11.2925C7.00299 11.4863 7.23262 12.3687 6.71438 12.8813L1.61935 17.9214C1.02121 18.513 0.00735496 18.0882 0.00781265 17.2461L0.0083352 16.2793C0.00846596 15.9745 0.130147 15.6824 0.346308 15.4679L4.46469 11.3808Z" fill="white"/>
<path d="M5.55965e-06 10.9572C-0.00221752 10.2573 0.662613 9.74826 1.33621 9.93408C2.11919 10.1501 2.37569 11.1339 1.79828 11.706C1.13253 12.3655 0.00294787 11.8951 5.55965e-06 10.9572Z" fill="white"/>
<path d="M15.7173 9.39398C16.1096 9.50225 16.4146 9.81178 16.5177 10.2061L16.7067 10.9286C16.8914 11.6352 16.2428 12.277 15.5398 12.0831L2.219 8.40935C1.40954 8.18613 1.26936 7.09603 1.99591 6.67463L2.8314 6.18994C3.09614 6.03641 3.41136 5.99581 3.70624 6.07721L15.7173 9.39398Z" fill="white"/>
<path d="M14.4683 4.61573C14.8624 4.72355 15.169 5.03426 15.2719 5.43036L15.4627 6.16463C15.6461 6.87072 14.9983 7.51116 14.296 7.31782L7.39134 5.41748C6.58077 5.19432 6.44104 4.1024 7.16923 3.68171L8.0053 3.19872C8.26887 3.0465 8.58219 3.00596 8.8757 3.08626L14.4683 4.61573Z" fill="white"/>
<path d="M12.6035 0.532209C13.2074 0.180328 13.9799 0.502596 14.156 1.17992C14.3607 1.96728 13.6386 2.68167 12.8553 2.46675C11.9524 2.21894 11.7941 1.0037 12.6035 0.532209Z" fill="white"/>
<path d="M21.7974 13.393C21.8999 13.7876 21.7849 14.2069 21.4955 14.4936L20.9654 15.0187C20.447 15.5324 19.5679 15.2905 19.3839 14.5836L15.8995 1.19024C15.6877 0.376395 16.56 -0.290267 17.2876 0.129371L18.1243 0.611917C18.3894 0.764812 18.5821 1.01797 18.6592 1.31454L21.7974 13.3937V13.393Z" fill="white"/>
<path d="M25.3029 9.9205C25.4068 10.3164 25.2914 10.7377 25.0004 11.025L24.4611 11.5577C23.9425 12.07 23.0649 11.828 22.8809 11.1221L21.0715 4.18149C20.859 3.36674 21.7332 2.69949 22.4609 3.12095L23.2964 3.6048C23.5599 3.75734 23.7515 4.00894 23.8289 4.3037L25.3029 9.9205Z" fill="white"/>
<path d="M27.8992 6.26098C28.5053 6.60902 28.613 7.44032 28.1155 7.93182C27.5373 8.50308 26.5586 8.23376 26.3528 7.44673C26.1155 6.53945 27.0869 5.79459 27.8992 6.26098Z" fill="white"/>
<path d="M21.3739 20.6465C21.084 20.9327 20.664 21.0426 20.2715 20.9349L19.5524 20.7375C18.8492 20.5445 18.6187 19.661 19.1378 19.148L28.9743 9.42789C29.572 8.83721 30.5845 9.2607 30.5855 10.1017L30.5867 11.0689C30.5871 11.3754 30.4646 11.6691 30.2467 11.8843L21.3739 20.6465Z" fill="white"/>
<path d="M26.1294 21.9512C25.8392 22.2393 25.4173 22.3498 25.0234 22.2411L24.2932 22.0395C23.5911 21.8457 23.3615 20.9633 23.8797 20.4507L28.9747 15.4106C29.5729 14.819 30.5867 15.2438 30.5863 16.0859L30.5857 17.0527C30.5856 17.3575 30.4639 17.6496 30.2478 17.8641L26.1294 21.9512Z" fill="white"/>
<path d="M30.5889 22.3754C30.5911 23.0753 29.9262 23.5843 29.2527 23.3984C28.4697 23.1824 28.2132 22.1987 28.7906 21.6266C29.4563 20.9671 30.5859 21.4374 30.5889 22.3754Z" fill="white"/>
</svg>
